<?xml version="1.0" encoding="UTF-8" standalone="no"?>
<!DOCTYPE svg PUBLIC "-//W3C//DTD SVG 1.1//EN" "http://www.w3.org/Graphics/SVG/1.1/DTD/svg11.dtd">
<!-- Generated by Microsoft Visio, SVG Export architecture.svg Page-1 -->
<svg xmlns="http://www.w3.org/2000/svg" xmlns:xlink="http://www.w3.org/1999/xlink" xmlns:ev="http://www.w3.org/2001/xml-events"
		xmlns:v="http://schemas.microsoft.com/visio/2003/SVGExtensions/" width="8.05932in" height="6.00977in"
		viewBox="0 0 580.271 432.703" xml:space="preserve" color-interpolation-filters="sRGB" class="st11">
	<v:documentProperties v:langID="2057" v:metric="true" v:viewMarkup="false"/>

	<style type="text/css">
	<![CDATA[
		.st1 {fill:none;stroke:none;stroke-linecap:round;stroke-linejoin:round;stroke-width:0.75}
		.st2 {fill:#000000;font-family:Times New Roman;font-size:1.5em;font-weight:bold}
		.st3 {font-size:1em}
		.st4 {font-size:0.777771em;font-weight:normal}
		.st5 {fill:#000000;font-family:Times New Roman;font-size:1.16666em;font-weight:bold}
		.st6 {baseline-shift:32.4943%;font-size:0.649886em}
		.st7 {fill:#000000;font-family:Times New Roman;font-size:1.16666em}
		.st8 {fill:none}
		.st9 {stroke:#505050;stroke-linecap:butt;stroke-opacity:0.69;stroke-width:0.502743}
		.st10 {fill:#ffffff;stroke:#333333;stroke-linecap:butt;stroke-width:0.652913}
		.st11 {fill:none;fill-rule:evenodd;font-size:12px;overflow:visible;stroke-linecap:square;stroke-miterlimit:3}
	]]>
	</style>

	<g v:mID="0" v:index="1" v:groupContext="foregroundPage">
		<title>Page-1</title>
		<v:pageProperties v:drawingScale="0.0393701" v:pageScale="0.0393701" v:drawingUnits="24" v:shadowOffsetX="9"
				v:shadowOffsetY="-9"/>
		<g id="shape594-1" v:mID="594" v:groupContext="shape" transform="translate(0.74188,-42.9449)">
			<title>Sheet.594</title>
			<desc>Input Layer Size: 4 (x, y, angle, speed) per each sequence*</desc>
			<v:textBlock v:margins="rect(4,4,4,4)" v:tabSpace="42.5197"/>
			<v:textRect cx="61.4952" cy="378.136" width="123" height="109.134"/>
			<rect x="0" y="323.569" width="122.99" height="109.134" class="st1"/>
			<text x="4" y="351.59" class="st2" v:langID="2057"><v:paragraph v:spLine="-0.9"/><v:tabList/>Input Layer <tspan x="4"
						dy="0.9em" class="st3">Size</tspan>: 4<v:lf/><v:newlineChar/><v:paragraph v:spLine="-0.9" v:horizAlign="3"/><tspan
						x="0.286em" dy="2.121em" class="st4">(</tspan><tspan x="0.619em" dy="0em" class="st4">x</tspan><tspan x="
							1.119em 1.369em" dy="0em" class="st4">, </tspan><tspan x="1.82em" dy="0em" class="st4">y</tspan><tspan
						x="2.32em 2.57em" dy="0em" class="st4">, </tspan><tspan x="3.022em 3.466em 3.966em 4.466em 4.744em"
						dy="0em" class="st4">angle</tspan><tspan x="5.188em 5.438em" dy="0em" class="st4">, </tspan><tspan x="5.89em
							 6.279em 6.779em 7.223em 7.666em" dy="0em" class="st4">speed</tspan><tspan x="8.166em 8.499em" dy="0em"
						class="st4">) </tspan><tspan x="0.286em 0.786em 1.23em 1.563em 1.813em 2.256em 2.7em 3.144em 3.644em 3.894em
							 4.283em 4.727em 5.227em 5.727em 6.171em 6.671em 7.115em" dy="1.093em" class="st4">per each sequence</tspan><tspan
						x="7.559em" dy="0em" class="st4">*</tspan></text>		</g>
		<g id="shape595-16" v:mID="595" v:groupContext="shape" transform="translate(120.458,-49.3696)">
			<title>Sheet.595</title>
			<desc>1st Hidden Layer Size: 50</desc>
			<v:textBlock v:margins="rect(4,4,4,4)" v:tabSpace="42.5197"/>
			<v:textRect cx="49.6063" cy="407.9" width="99.22" height="49.6063"/>
			<rect x="0" y="383.097" width="99.2126" height="49.6063" class="st1"/>
			<text x="4" y="403.66" class="st5" v:langID="2057"><v:paragraph/><v:tabList/>1<tspan dy="-0.198em" class="st6"
						v:baseFontSize="14">st</tspan><tspan dy="0.129em" class="st3"> </tspan>Hidden <v:newlineChar/><tspan x="4"
						dy="1.204em" class="st3">Layer Size</tspan>: 50 </text>		</g>
		<g id="shape596-22" v:mID="596" v:groupContext="shape" transform="translate(240.93,-49.3696)">
			<title>Sheet.596</title>
			<desc>2nd Hidden Layer Size: 50</desc>
			<v:textBlock v:margins="rect(4,4,4,4)" v:tabSpace="42.5197"/>
			<v:textRect cx="49.6063" cy="407.9" width="99.22" height="49.6063"/>
			<rect x="0" y="383.097" width="99.2126" height="49.6063" class="st1"/>
			<text x="4" y="403.66" class="st5" v:langID="2057"><v:paragraph/><v:tabList/>2<tspan dy="-0.198em" class="st6"
						v:baseFontSize="14">nd</tspan><tspan dy="0.129em" class="st3"> </tspan>Hidden <v:newlineChar/><tspan x="4"
						dy="1.204em" class="st3">Layer Size</tspan>: 50 </text>		</g>
		<g id="shape597-28" v:mID="597" v:groupContext="shape" transform="translate(361.403,-48.6645)">
			<title>Sheet.597</title>
			<desc>3rd Hidden Layer Size: 50</desc>
			<v:textBlock v:margins="rect(4,4,4,4)" v:tabSpace="42.5197"/>
			<v:textRect cx="55.8219" cy="407.9" width="111.65" height="49.6063"/>
			<rect x="0" y="383.097" width="111.644" height="49.6063" class="st1"/>
			<text x="4" y="403.66" class="st5" v:langID="2057"><v:paragraph/><v:tabList/>3<tspan dy="-0.198em" class="st6"
						v:baseFontSize="14">rd</tspan><tspan dy="0.129em" class="st3"> </tspan>Hidden <v:newlineChar/><tspan x="4"
						dy="1.204em" class="st3">Layer Size</tspan>: 50 </text>		</g>
		<g id="shape598-34" v:mID="598" v:groupContext="shape" transform="translate(456.906,-42.9449)">
			<title>Sheet.598</title>
			<desc>Output Layer Size: 2 (x’, y’) per each sequence</desc>
			<v:textBlock v:margins="rect(4,4,4,4)" v:tabSpace="42.5197"/>
			<v:textRect cx="61.4952" cy="378.136" width="123" height="109.134"/>
			<rect x="0" y="323.569" width="122.99" height="109.134" class="st1"/>
			<text x="4" y="351.59" class="st2" v:langID="2057"><v:paragraph v:spLine="-0.9"/><v:tabList/>Output Layer <tspan x="4"
						dy="0.9em" class="st3">Size</tspan>: 2<v:lf/><v:newlineChar/><tspan x="4" dy="2.121em" class="st4">(</tspan><tspan
						class="st4">x</tspan><tspan class="st4">’</tspan><tspan class="st4">, </tspan><tspan class="st4">y</tspan><tspan
						class="st4">’</tspan><tspan class="st4">) </tspan><tspan class="st4">per each </tspan><tspan x="4"
						dy="1.093em" class="st4">sequence </tspan> </text>		</g>
		<g id="shape1000-47" v:mID="1000" v:groupContext="shape" transform="translate(1.02791,-15.1999)">
			<title>Sheet.1000</title>
			<desc>* A sequence comprises of these 4 features for a sequence wit...</desc>
			<v:textBlock v:margins="rect(4,4,4,4)" v:tabSpace="42.5197"/>
			<v:textRect cx="287.033" cy="422.703" width="574.07" height="20"/>
			<rect x="0" y="412.703" width="574.066" height="20" class="st1"/>
			<text x="0.286em 0.786em" y="410.1" class="st7" v:langID="2057"><v:paragraph v:horizAlign="3"/><v:tabList/>* <tspan x="
							1.178em 1.9em 2.292em 2.681em 3.125em 3.625em 4.125em 4.569em 5.069em 5.513em 5.957em 6.349em 6.792em
							 7.292em 8.07em 8.57em 8.903em 9.181em 9.57em 10.014em 10.403em 10.795em 11.295em 11.628em 12.02em 12.298em
							 12.798em 13.242em 13.631em 14.075em" dy="0em" class="st3">A sequence comprises of these </tspan><tspan
						x="14.467em 14.967em" dy="0em" class="st3">4 </tspan><tspan x="15.359em 15.692em 16.136em 16.58em 16.858em
							 17.358em 17.691em 18.135em 18.524em 18.916em 19.249em 19.749em 20.082em 20.474em 20.918em 21.31em 21.699em
							 22.143em 22.643em 23.143em 23.587em 24.087em 24.531em 24.974em 25.366em 26.089em 26.366em 26.644em 27.144em
							 27.536em 27.814em 28.314em 28.758em 29.15em 29.428em 29.872em 30.372em 30.872em 31.15em 31.65em 32.042em
							 32.542em 32.875em" dy="0em" class="st3">features for a sequence with the length of </tspan><tspan x="
							33.267em 33.767em" dy="0em" class="st3">5 </tspan><tspan x="34.159em 34.492em 34.992em 35.27em 35.548em
							 36.048em 36.77em 37.214em 37.714em 38.106em 38.606em 39.106em 39.498em 39.776em 40.276em 40.719em"
						dy="0em" class="st3">followed by the </tspan><tspan x="0.286em 0.564em 1.064em 1.507em 1.951em 2.229em 2.507em
							 3.007em 3.507em" dy="1.2em" class="st3">location </tspan><tspan x="3.757em" dy="0em" class="st3">(</tspan><tspan
						x="4.09em" dy="0em" class="st3">x</tspan><tspan x="4.59em 4.84em" dy="0em" class="st3">, </tspan><tspan x="
							5.09em" dy="0em" class="st3">y</tspan><tspan x="5.59em 5.923em" dy="0em" class="st3">) </tspan><tspan
						x="6.173em 6.617em 6.895em 7.145em 7.422em 7.922em 8.366em" dy="0em" class="st3">at the </tspan><tspan x="
							8.616em" dy="0em" class="st3">5</tspan><tspan x="14.028em 14.305em" dy="-0.198em" class="st6"
						v:baseFontSize="14">th</tspan><tspan x="9.622em" dy="0.129em" class="st3"> </tspan><tspan x="9.872em 10.15em
							 10.428em 11.205em 11.649em 11.899em 12.288em 12.566em 13.01em" dy="0em" class="st3">time step</tspan><tspan
						x="13.51em 13.76em 14.01em 14.26em 14.51em 14.76em 15.01em" dy="0em" class="st3">.      <v:newlineChar/></tspan><tspan
						x="0.286em 0.786em 1.286em 1.536em" dy="1.2em" class="st3">** (</tspan><tspan x="1.869em" dy="0em"
						class="st3">x</tspan><tspan x="2.369em" dy="0em" class="st3">’</tspan><tspan x="2.702em 2.952em" dy="0em"
						class="st3">, </tspan><tspan x="3.202em" dy="0em" class="st3">y</tspan><tspan x="3.702em" dy="0em"
						class="st3">’</tspan><tspan x="4.035em 4.368em" dy="0em" class="st3">) </tspan><tspan x="4.618em 5.062em
							 5.395em 5.838em 6.088em 6.366em 6.866em 7.31em 7.56em 8.06em 8.393em 8.837em 9.337em 9.615em 10.059em
							 10.337em 10.78em 11.28em 11.53em 11.808em 12.308em 12.752em 13.196em 13.474em 13.752em 14.252em 14.752em
							 15.141em 15.391em 15.724em 16.224em 16.557em 16.807em 17.251em 17.694em 18.138em 18.638em 18.888em 19.388em
							 19.832em 20.332em 20.61em 21.054em 21.332em 21.776em 22.026em 22.303em 22.803em 23.053em 23.497em 23.941em
							 24.385em 24.885em 25.135em 25.413em 25.691em 26.468em 26.912em 27.162em 27.551em 27.829em 28.273em 28.773em
							 29.023em 29.301em 29.801em 30.051em 30.329em 30.829em 31.273em 31.551em 31.884em 32.134em 32.467em 32.91em
							 33.3em 33.8em 34.243em 34.687em 34.965em 35.243em 35.743em 36.187em 36.437em 36.826em 37.27em 37.77em
							 38.27em 38.714em 39.214em 39.657em" dy="0em" class="st3">are the predicted locations for each vehicle in each time step in their respective sequence</tspan><tspan
						x="40.101em" dy="0em" class="st3">.</tspan></text>		</g>
		<g id="group1001-76" transform="translate(0.652913,-94.7275)" v:mID="1001" v:groupContext="group">
			<title>Sheet.1001</title>
			<g id="group1002-77" v:mID="1002" v:groupContext="group">
				<title>Sheet.1002</title>
				<g id="shape1003-78" v:mID="1003" v:groupContext="shape" transform="translate(19.7458,-257.431)">
					<title>Sheet.1003</title>
					<path d="M0 432.7 L128.78 430.48 L0 432.7 Z" class="st8"/>
					<path d="M0 432.7 L128.78 430.48" class="st9"/>
				</g>
				<g id="shape1004-81" v:mID="1004" v:groupContext="shape" transform="translate(19.7458,-198.991)">
					<title>Sheet.1004</title>
					<path d="M0 374.26 L128.78 432.7 L0 374.26 Z" class="st8"/>
					<path d="M0 374.26 L128.78 432.7" class="st9"/>
				</g>
				<g id="shape1007-84" v:mID="1007" v:groupContext="shape" transform="translate(19.7458,-198.251)">
					<title>Sheet.1007</title>
					<path d="M0 432.7 L128.78 371.3 L0 432.7 Z" class="st8"/>
					<path d="M0 432.7 L128.78 371.3" class="st9"/>
				</g>
				<g id="shape1008-87" v:mID="1008" v:groupContext="shape" transform="translate(19.7458,-198.251)">
					<title>Sheet.1008</title>
					<path d="M0 432.7 L128.78 431.96 L0 432.7 Z" class="st8"/>
					<path d="M0 432.7 L128.78 431.96" class="st9"/>
				</g>
				<g id="shape1011-90" v:mID="1011" v:groupContext="shape" transform="translate(19.7458,-139.072)">
					<title>Sheet.1011</title>
					<path d="M0 432.7 L128.78 312.13 L0 432.7 Z" class="st8"/>
					<path d="M0 432.7 L128.78 312.13" class="st9"/>
				</g>
				<g id="shape1012-93" v:mID="1012" v:groupContext="shape" transform="translate(19.7458,-139.072)">
					<title>Sheet.1012</title>
					<path d="M0 432.7 L128.78 372.78 L0 432.7 Z" class="st8"/>
					<path d="M0 432.7 L128.78 372.78" class="st9"/>
				</g>
				<g id="shape1015-96" v:mID="1015" v:groupContext="shape" transform="translate(19.7458,-79.8923)">
					<title>Sheet.1015</title>
					<path d="M0 432.7 L128.78 252.95 L0 432.7 Z" class="st8"/>
					<path d="M0 432.7 L128.78 252.95" class="st9"/>
				</g>
				<g id="shape1016-99" v:mID="1016" v:groupContext="shape" transform="translate(19.7458,-79.8923)">
					<title>Sheet.1016</title>
					<path d="M0 432.7 L128.78 313.6 L0 432.7 Z" class="st8"/>
					<path d="M0 432.7 L128.78 313.6" class="st9"/>
				</g>
				<g id="shape1019-102" v:mID="1019" v:groupContext="shape" transform="translate(148.522,-257.431)">
					<title>Sheet.1019</title>
					<path d="M0 369.83 L128.78 432.7 L0 369.83 Z" class="st8"/>
					<path d="M0 369.83 L128.78 432.7" class="st9"/>
				</g>
				<g id="shape1020-105" v:mID="1020" v:groupContext="shape" transform="translate(148.522,-198.251)">
					<title>Sheet.1020</title>
					<path d="M0 310.65 L128.78 432.7 L0 310.65 Z" class="st8"/>
					<path d="M0 310.65 L128.78 432.7" class="st9"/>
				</g>
				<g id="shape1023-108" v:mID="1023" v:groupContext="shape" transform="translate(148.522,-257.431)">
					<title>Sheet.1023</title>
					<path d="M0 430.48 L128.78 432.7 L0 430.48 Z" class="st8"/>
					<path d="M0 430.48 L128.78 432.7" class="st9"/>
				</g>
				<g id="shape1024-111" v:mID="1024" v:groupContext="shape" transform="translate(148.522,-198.251)">
					<title>Sheet.1024</title>
					<path d="M0 371.3 L128.78 432.7 L0 371.3 Z" class="st8"/>
					<path d="M0 371.3 L128.78 432.7" class="st9"/>
				</g>
				<g id="shape1027-114" v:mID="1027" v:groupContext="shape" transform="translate(148.522,-198.991)">
					<title>Sheet.1027</title>
					<path d="M0 432.7 L128.78 374.26 L0 432.7 Z" class="st8"/>
					<path d="M0 432.7 L128.78 374.26" class="st9"/>
				</g>
				<g id="shape1028-117" v:mID="1028" v:groupContext="shape" transform="translate(148.522,-198.251)">
					<title>Sheet.1028</title>
					<path d="M0 431.96 L128.78 432.7 L0 431.96 Z" class="st8"/>
					<path d="M0 431.96 L128.78 432.7" class="st9"/>
				</g>
				<g id="shape1039-120" v:mID="1039" v:groupContext="shape" transform="translate(277.299,-257.431)">
					<title>Sheet.1039</title>
					<path d="M0 373.52 L128.78 432.7 L0 373.52 Z" class="st8"/>
					<path d="M0 373.52 L128.78 432.7" class="st9"/>
				</g>
				<g id="shape1040-123" v:mID="1040" v:groupContext="shape" transform="translate(277.299,-198.251)">
					<title>Sheet.1040</title>
					<path d="M0 314.34 L128.78 432.7 L0 314.34 Z" class="st8"/>
					<path d="M0 314.34 L128.78 432.7" class="st9"/>
				</g>
				<g id="shape1043-126" v:mID="1043" v:groupContext="shape" transform="translate(277.299,-257.431)">
					<title>Sheet.1043</title>
					<path d="M0 432.7 L128.78 432.7 L0 432.7 Z" class="st8"/>
					<path d="M0 432.7 L128.78 432.7" class="st9"/>
				</g>
				<g id="shape1044-129" v:mID="1044" v:groupContext="shape" transform="translate(277.299,-198.251)">
					<title>Sheet.1044</title>
					<path d="M0 373.52 L128.78 432.7 L0 373.52 Z" class="st8"/>
					<path d="M0 373.52 L128.78 432.7" class="st9"/>
				</g>
				<g id="shape1047-132" v:mID="1047" v:groupContext="shape" transform="translate(277.299,-198.251)">
					<title>Sheet.1047</title>
					<path d="M0 432.7 L128.78 373.52 L0 432.7 Z" class="st8"/>
					<path d="M0 432.7 L128.78 373.52" class="st9"/>
				</g>
				<g id="shape1048-135" v:mID="1048" v:groupContext="shape" transform="translate(277.299,-198.251)">
					<title>Sheet.1048</title>
					<path d="M0 432.7 L128.78 432.7 L0 432.7 Z" class="st8"/>
					<path d="M0 432.7 L128.78 432.7" class="st9"/>
				</g>
				<g id="shape1059-138" v:mID="1059" v:groupContext="shape" transform="translate(406.076,-198.251)">
					<title>Sheet.1059</title>
					<path d="M0 314.34 L128.78 432.7 L0 314.34 Z" class="st8"/>
					<path d="M0 314.34 L128.78 432.7" class="st9"/>
				</g>
				<g id="shape1060-141" v:mID="1060" v:groupContext="shape" transform="translate(406.076,-139.072)">
					<title>Sheet.1060</title>
					<path d="M0 255.16 L128.78 432.7 L0 255.16 Z" class="st8"/>
					<path d="M0 255.16 L128.78 432.7" class="st9"/>
				</g>
				<g id="shape1061-144" v:mID="1061" v:groupContext="shape" transform="translate(406.076,-198.251)">
					<title>Sheet.1061</title>
					<path d="M0 373.52 L128.78 432.7 L0 373.52 Z" class="st8"/>
					<path d="M0 373.52 L128.78 432.7" class="st9"/>
				</g>
				<g id="shape1062-147" v:mID="1062" v:groupContext="shape" transform="translate(406.076,-139.072)">
					<title>Sheet.1062</title>
					<path d="M0 314.34 L128.78 432.7 L0 314.34 Z" class="st8"/>
					<path d="M0 314.34 L128.78 432.7" class="st9"/>
				</g>
				<g id="shape1063-150" v:mID="1063" v:groupContext="shape" transform="translate(406.076,-198.251)">
					<title>Sheet.1063</title>
					<path d="M0 432.7 L128.78 432.7 L0 432.7 Z" class="st8"/>
					<path d="M0 432.7 L128.78 432.7" class="st9"/>
				</g>
				<g id="shape1064-153" v:mID="1064" v:groupContext="shape" transform="translate(406.076,-139.072)">
					<title>Sheet.1064</title>
					<path d="M0 373.52 L128.78 432.7 L0 373.52 Z" class="st8"/>
					<path d="M0 373.52 L128.78 432.7" class="st9"/>
				</g>
				<g id="shape1069-156" v:mID="1069" v:groupContext="shape" transform="translate(19.7458,-17.0141)">
					<title>Sheet.1069</title>
					<path d="M0 192.29 L128.78 432.7 L0 192.29 Z" class="st8"/>
					<path d="M0 192.29 L128.78 432.7" class="st9"/>
				</g>
				<g id="shape1070-159" v:mID="1070" v:groupContext="shape" transform="translate(19.7458,-17.0141)">
					<title>Sheet.1070</title>
					<path d="M0 251.47 L128.78 432.7 L0 251.47 Z" class="st8"/>
					<path d="M0 251.47 L128.78 432.7" class="st9"/>
				</g>
				<g id="shape1071-162" v:mID="1071" v:groupContext="shape" transform="translate(19.7458,-17.0141)">
					<title>Sheet.1071</title>
					<path d="M0 310.65 L128.78 432.7 L0 310.65 Z" class="st8"/>
					<path d="M0 310.65 L128.78 432.7" class="st9"/>
				</g>
				<g id="shape1072-165" v:mID="1072" v:groupContext="shape" transform="translate(19.7458,-17.0141)">
					<title>Sheet.1072</title>
					<path d="M0 369.83 L128.78 432.7 L0 369.83 Z" class="st8"/>
					<path d="M0 369.83 L128.78 432.7" class="st9"/>
				</g>
				<g id="shape1073-168" v:mID="1073" v:groupContext="shape" transform="translate(148.522,-17.0141)">
					<title>Sheet.1073</title>
					<path d="M0 432.7 L128.78 192.29 L0 432.7 Z" class="st8"/>
					<path d="M0 432.7 L128.78 192.29" class="st9"/>
				</g>
				<g id="shape1074-171" v:mID="1074" v:groupContext="shape" transform="translate(148.522,-17.0141)">
					<title>Sheet.1074</title>
					<path d="M0 432.7 L128.78 251.47 L0 432.7 Z" class="st8"/>
					<path d="M0 432.7 L128.78 251.47" class="st9"/>
				</g>
				<g id="shape1077-174" v:mID="1077" v:groupContext="shape" transform="translate(148.522,-20.7128)">
					<title>Sheet.1077</title>
					<path d="M0 133.11 L128.78 432.7 L0 133.11 Z" class="st8"/>
					<path d="M0 133.11 L128.78 432.7" class="st9"/>
				</g>
				<g id="shape1078-177" v:mID="1078" v:groupContext="shape" transform="translate(148.522,-20.7128)">
					<title>Sheet.1078</title>
					<path d="M0 193.77 L128.78 432.7 L0 193.77 Z" class="st8"/>
					<path d="M0 193.77 L128.78 432.7" class="st9"/>
				</g>
				<g id="shape1079-180" v:mID="1079" v:groupContext="shape" transform="translate(148.522,-20.7128)">
					<title>Sheet.1079</title>
					<path d="M0 254.43 L128.78 432.7 L0 254.43 Z" class="st8"/>
					<path d="M0 254.43 L128.78 432.7" class="st9"/>
				</g>
				<g id="shape1082-183" v:mID="1082" v:groupContext="shape" transform="translate(148.522,-17.0141)">
					<title>Sheet.1082</title>
					<path d="M0 432.7 L128.78 429 L0 432.7 Z" class="st8"/>
					<path d="M0 432.7 L128.78 429" class="st9"/>
				</g>
				<g id="shape1083-186" v:mID="1083" v:groupContext="shape" transform="translate(277.299,-20.7128)">
					<title>Sheet.1083</title>
					<path d="M0 432.7 L128.78 195.99 L0 432.7 Z" class="st8"/>
					<path d="M0 432.7 L128.78 195.99" class="st9"/>
				</g>
				<g id="shape1084-189" v:mID="1084" v:groupContext="shape" transform="translate(277.299,-20.7128)">
					<title>Sheet.1084</title>
					<path d="M0 432.7 L128.78 255.16 L0 432.7 Z" class="st8"/>
					<path d="M0 432.7 L128.78 255.16" class="st9"/>
				</g>
				<g id="shape1087-192" v:mID="1087" v:groupContext="shape" transform="translate(277.299,-20.7128)">
					<title>Sheet.1087</title>
					<path d="M0 136.81 L128.78 432.7 L0 136.81 Z" class="st8"/>
					<path d="M0 136.81 L128.78 432.7" class="st9"/>
				</g>
				<g id="shape1088-195" v:mID="1088" v:groupContext="shape" transform="translate(277.299,-20.7128)">
					<title>Sheet.1088</title>
					<path d="M0 195.99 L128.78 432.7 L0 195.99 Z" class="st8"/>
					<path d="M0 195.99 L128.78 432.7" class="st9"/>
				</g>
				<g id="shape1089-198" v:mID="1089" v:groupContext="shape" transform="translate(277.299,-20.7128)">
					<title>Sheet.1089</title>
					<path d="M0 255.16 L128.78 432.7 L0 255.16 Z" class="st8"/>
					<path d="M0 255.16 L128.78 432.7" class="st9"/>
				</g>
				<g id="shape1092-201" v:mID="1092" v:groupContext="shape" transform="translate(277.299,-20.7128)">
					<title>Sheet.1092</title>
					<path d="M0 432.7 L128.78 432.7 L0 432.7 Z" class="st8"/>
					<path d="M0 432.7 L128.78 432.7" class="st9"/>
				</g>
				<g id="shape1093-204" v:mID="1093" v:groupContext="shape" transform="translate(406.076,-20.7128)">
					<title>Sheet.1093</title>
					<path d="M0 432.7 L128.78 255.16 L0 432.7 Z" class="st8"/>
					<path d="M0 432.7 L128.78 255.16" class="st9"/>
				</g>
				<g id="shape1094-207" v:mID="1094" v:groupContext="shape" transform="translate(406.076,-20.7128)">
					<title>Sheet.1094</title>
					<path d="M0 432.7 L128.78 314.34 L0 432.7 Z" class="st8"/>
					<path d="M0 432.7 L128.78 314.34" class="st9"/>
				</g>
				<g id="shape1095-210" v:mID="1095" v:groupContext="shape" transform="translate(19.7458,-257.431)">
					<title>Sheet.1095</title>
					<path d="M0 432.7 L128.78 369.83 L0 432.7 Z" class="st8"/>
					<path d="M0 432.7 L128.78 369.83" class="st9"/>
				</g>
				<g id="shape1096-213" v:mID="1096" v:groupContext="shape" transform="translate(19.7458,-198.251)">
					<title>Sheet.1096</title>
					<path d="M0 432.7 L128.78 310.65 L0 432.7 Z" class="st8"/>
					<path d="M0 432.7 L128.78 310.65" class="st9"/>
				</g>
				<g id="shape1097-216" v:mID="1097" v:groupContext="shape" transform="translate(19.7458,-139.072)">
					<title>Sheet.1097</title>
					<path d="M0 432.7 L128.78 251.47 L0 432.7 Z" class="st8"/>
					<path d="M0 432.7 L128.78 251.47" class="st9"/>
				</g>
				<g id="shape1098-219" v:mID="1098" v:groupContext="shape" transform="translate(19.7458,-79.8923)">
					<title>Sheet.1098</title>
					<path d="M0 432.7 L128.78 192.29 L0 432.7 Z" class="st8"/>
					<path d="M0 432.7 L128.78 192.29" class="st9"/>
				</g>
				<g id="shape1099-222" v:mID="1099" v:groupContext="shape" transform="translate(148.522,-316.61)">
					<title>Sheet.1099</title>
					<path d="M0 429 L128.78 432.7 L0 429 Z" class="st8"/>
					<path d="M0 429 L128.78 432.7" class="st9"/>
				</g>
				<g id="shape1100-225" v:mID="1100" v:groupContext="shape" transform="translate(148.522,-259.65)">
					<title>Sheet.1100</title>
					<path d="M0 432.7 L128.78 375.74 L0 432.7 Z" class="st8"/>
					<path d="M0 432.7 L128.78 375.74" class="st9"/>
				</g>
				<g id="shape1101-228" v:mID="1101" v:groupContext="shape" transform="translate(148.522,-198.991)">
					<title>Sheet.1101</title>
					<path d="M0 432.7 L128.78 315.08 L0 432.7 Z" class="st8"/>
					<path d="M0 432.7 L128.78 315.08" class="st9"/>
				</g>
				<g id="shape1104-231" v:mID="1104" v:groupContext="shape" transform="translate(148.522,-17.0141)">
					<title>Sheet.1104</title>
					<path d="M0 432.7 L128.78 133.11 L0 432.7 Z" class="st8"/>
					<path d="M0 432.7 L128.78 133.11" class="st9"/>
				</g>
				<g id="shape1105-234" v:mID="1105" v:groupContext="shape" transform="translate(277.299,-316.61)">
					<title>Sheet.1105</title>
					<path d="M0 432.7 L128.78 432.7 L0 432.7 Z" class="st8"/>
					<path d="M0 432.7 L128.78 432.7" class="st9"/>
				</g>
				<g id="shape1106-237" v:mID="1106" v:groupContext="shape" transform="translate(277.299,-257.431)">
					<title>Sheet.1106</title>
					<path d="M0 432.7 L128.78 373.52 L0 432.7 Z" class="st8"/>
					<path d="M0 432.7 L128.78 373.52" class="st9"/>
				</g>
				<g id="shape1107-240" v:mID="1107" v:groupContext="shape" transform="translate(277.299,-198.251)">
					<title>Sheet.1107</title>
					<path d="M0 432.7 L128.78 314.34 L0 432.7 Z" class="st8"/>
					<path d="M0 432.7 L128.78 314.34" class="st9"/>
				</g>
				<g id="shape1110-243" v:mID="1110" v:groupContext="shape" transform="translate(277.299,-20.7128)">
					<title>Sheet.1110</title>
					<path d="M0 432.7 L128.78 136.81 L0 432.7 Z" class="st8"/>
					<path d="M0 432.7 L128.78 136.81" class="st9"/>
				</g>
				<g id="shape1111-246" v:mID="1111" v:groupContext="shape" transform="translate(2.75779E-13,-240.416)">
					<title>0_0</title>
					<ellipse cx="19.7458" cy="415.689" rx="19.7458" ry="17.0141" class="st10"/>
				</g>
				<g id="shape1112-248" v:mID="1112" v:groupContext="shape" transform="translate(2.75779E-13,-181.237)">
					<title>0_1</title>
					<ellipse cx="19.7458" cy="415.689" rx="19.7458" ry="17.0141" class="st10"/>
				</g>
				<g id="shape1113-250" v:mID="1113" v:groupContext="shape" transform="translate(2.75779E-13,-122.058)">
					<title>0_2</title>
					<ellipse cx="19.7458" cy="415.689" rx="19.7458" ry="17.0141" class="st10"/>
				</g>
				<g id="shape1114-252" v:mID="1114" v:groupContext="shape" transform="translate(2.75779E-13,-62.8782)">
					<title>0_3</title>
					<ellipse cx="19.7458" cy="415.689" rx="19.7458" ry="17.0141" class="st10"/>
				</g>
				<g id="shape1115-254" v:mID="1115" v:groupContext="shape" transform="translate(128.777,-303.295)">
					<title>1_0</title>
					<ellipse cx="19.7458" cy="415.689" rx="19.7458" ry="17.0141" class="st10"/>
				</g>
				<g id="shape1116-256" v:mID="1116" v:groupContext="shape" transform="translate(128.777,-242.636)">
					<title>1_1</title>
					<ellipse cx="19.7458" cy="415.689" rx="19.7458" ry="17.0141" class="st10"/>
				</g>
				<g id="shape1117-258" v:mID="1117" v:groupContext="shape" transform="translate(128.777,-181.977)">
					<title>1_2</title>
					<ellipse cx="19.7458" cy="415.689" rx="19.7458" ry="17.0141" class="st10"/>
				</g>
				<g id="shape1120-260" v:mID="1120" v:groupContext="shape" transform="translate(128.777,6.82121E-13)">
					<title>1_5</title>
					<ellipse cx="19.7458" cy="415.689" rx="19.7458" ry="17.0141" class="st10"/>
				</g>
				<g id="shape1121-262" v:mID="1121" v:groupContext="shape" transform="translate(257.553,-299.596)">
					<title>2_0</title>
					<ellipse cx="19.7458" cy="415.689" rx="19.7458" ry="17.0141" class="st10"/>
				</g>
				<g id="shape1122-264" v:mID="1122" v:groupContext="shape" transform="translate(257.553,-240.416)">
					<title>2_1</title>
					<ellipse cx="19.7458" cy="415.689" rx="19.7458" ry="17.0141" class="st10"/>
				</g>
				<g id="shape1123-266" v:mID="1123" v:groupContext="shape" transform="translate(257.553,-181.237)">
					<title>2_2</title>
					<ellipse cx="19.7458" cy="415.689" rx="19.7458" ry="17.0141" class="st10"/>
				</g>
				<g id="shape1126-268" v:mID="1126" v:groupContext="shape" transform="translate(257.553,-3.69872)">
					<title>2_5</title>
					<ellipse cx="19.7458" cy="415.689" rx="19.7458" ry="17.0141" class="st10"/>
				</g>
				<g id="shape1127-270" v:mID="1127" v:groupContext="shape" transform="translate(386.33,-299.596)">
					<title>3_0</title>
					<ellipse cx="19.7458" cy="415.689" rx="19.7458" ry="17.0141" class="st10"/>
				</g>
				<g id="shape1128-272" v:mID="1128" v:groupContext="shape" transform="translate(386.33,-240.416)">
					<title>3_1</title>
					<ellipse cx="19.7458" cy="415.689" rx="19.7458" ry="17.0141" class="st10"/>
				</g>
				<g id="shape1129-274" v:mID="1129" v:groupContext="shape" transform="translate(386.33,-181.237)">
					<title>3_2</title>
					<ellipse cx="19.7458" cy="415.689" rx="19.7458" ry="17.0141" class="st10"/>
				</g>
				<g id="shape1132-276" v:mID="1132" v:groupContext="shape" transform="translate(386.33,-3.69872)">
					<title>3_5</title>
					<ellipse cx="19.7458" cy="415.689" rx="19.7458" ry="17.0141" class="st10"/>
				</g>
				<g id="shape1133-278" v:mID="1133" v:groupContext="shape" transform="translate(515.107,-181.237)">
					<title>4_0</title>
					<ellipse cx="19.7458" cy="415.689" rx="19.7458" ry="17.0141" class="st10"/>
				</g>
				<g id="shape1134-280" v:mID="1134" v:groupContext="shape" transform="translate(515.107,-122.058)">
					<title>4_1</title>
					<ellipse cx="19.7458" cy="415.689" rx="19.7458" ry="17.0141" class="st10"/>
				</g>
			</g>
		</g>
		<g id="shape1135-282" v:mID="1135" v:groupContext="shape" transform="translate(400.213,-141.499)">
			<title>Sheet.1135</title>
			<desc>. . .</desc>
			<v:textBlock v:margins="rect(4,4,4,4)" v:tabSpace="42.5197"/>
			<v:textRect cx="7.63693" cy="378.136" width="15.28" height="109.134"/>
			<rect x="0" y="323.569" width="15.2739" height="109.134" class="st1"/>
			<text x="4" y="365.95" class="st2" v:langID="2057"><v:paragraph v:spLine="-0.9"/><v:tabList/>.<v:newlineChar/><tspan
						x="4" dy="0.9em" class="st3">.<v:newlineChar/></tspan><tspan x="4" dy="0.903em" class="st3">.</tspan></text>		</g>
		<g id="shape1136-287" v:mID="1136" v:groupContext="shape" transform="translate(269.819,-141.499)">
			<title>Sheet.1136</title>
			<desc>. . .</desc>
			<v:textBlock v:margins="rect(4,4,4,4)" v:tabSpace="42.5197"/>
			<v:textRect cx="7.63693" cy="378.136" width="15.28" height="109.134"/>
			<rect x="0" y="323.569" width="15.2739" height="109.134" class="st1"/>
			<text x="4" y="365.95" class="st2" v:langID="2057"><v:paragraph v:spLine="-0.9"/><v:tabList/>.<v:newlineChar/><tspan
						x="4" dy="0.9em" class="st3">.<v:newlineChar/></tspan><tspan x="4" dy="0.903em" class="st3">.</tspan></text>		</g>
		<g id="shape1137-292" v:mID="1137" v:groupContext="shape" transform="translate(142.26,-141.357)">
			<title>Sheet.1137</title>
			<desc>. . .</desc>
			<v:textBlock v:margins="rect(4,4,4,4)" v:tabSpace="42.5197"/>
			<v:textRect cx="7.63693" cy="378.136" width="15.28" height="109.134"/>
			<rect x="0" y="323.569" width="15.2739" height="109.134" class="st1"/>
			<text x="4" y="365.95" class="st2" v:langID="2057"><v:paragraph v:spLine="-0.9"/><v:tabList/>.<v:newlineChar/><tspan
						x="4" dy="0.9em" class="st3">.<v:newlineChar/></tspan><tspan x="4" dy="0.903em" class="st3">.</tspan></text>		</g>
	</g>
</svg>
